<svg width="72" height="72" viewBox="0 0 72 72" fill="none" xmlns="http://www.w3.org/2000/svg">
<path d="M25.8224 28.7414H34.9452L31.6068 45.7992C31.5131 46.2776 31.7837 46.7523 32.2429 46.9157C32.3514 46.9543 32.4626 46.9727 32.5726 46.9727C32.9274 46.9727 33.2661 46.7799 33.4412 46.4514L47.046 20.9445C47.2087 20.6395 47.1995 20.2714 47.0215 19.9748C46.8436 19.6784 46.5233 19.497 46.1775 19.497H37.0548L40.3931 2.43914C40.4868 1.96073 40.2162 1.48598 39.757 1.32258C39.2981 1.15945 38.7879 1.35675 38.5587 1.78692L24.9539 27.2938C24.7912 27.5988 24.8004 27.9669 24.9784 28.2635C25.1563 28.56 25.4766 28.7414 25.8224 28.7414ZM37.1962 8.52455L34.8932 20.2925C34.8366 20.5813 34.9123 20.8801 35.0992 21.1072C35.2862 21.3344 35.5649 21.466 35.8591 21.466H44.5368L34.8037 39.7139L37.1069 27.9463C37.1634 27.6574 37.0878 27.3586 36.9009 27.1315C36.7138 26.9044 36.4351 26.7728 36.1409 26.7728H27.4631L37.1962 8.52455ZM69.75 35.0156H62.8938V26.9889H64.7431C65.1547 28.204 66.3051 29.0814 67.6575 29.0814C69.354 29.0814 70.7344 27.7012 70.7344 26.0045C70.7344 24.3079 69.3542 22.9276 67.6575 22.9276C66.3051 22.9276 65.1547 23.805 64.7431 25.0201H61.9095C61.3658 25.0201 60.9251 25.4609 60.9251 26.0045V35.0158H57.6587V7.25695C58.8738 6.84534 59.751 5.69489 59.751 4.3425C59.751 2.646 58.3709 1.26562 56.6743 1.26562C54.9776 1.26562 53.5974 2.64586 53.5974 4.3425C53.5974 5.69475 54.4748 6.84534 55.6899 7.25695V35.0158H52.4931C51.9494 35.0158 51.5087 35.4565 51.5087 36.0001C51.5087 44.5517 44.5514 51.5088 36 51.5088C27.4486 51.5088 20.4915 44.5517 20.4915 36C20.4915 35.4563 20.0508 35.0156 19.5071 35.0156H16.3101V7.25695C17.5253 6.84534 18.4026 5.69489 18.4026 4.3425C18.4026 2.646 17.0224 1.26562 15.3258 1.26562C13.6291 1.26562 12.2489 2.64586 12.2489 4.3425C12.2489 5.69475 13.1262 6.84534 14.3414 7.25695V35.0156H11.0748V26.0045C11.0748 25.4609 10.6341 25.0201 10.0904 25.0201H7.25683C6.84522 23.805 5.69477 22.9276 4.34238 22.9276C2.64588 22.9276 1.2655 24.3079 1.2655 26.0045C1.2655 27.7012 2.64574 29.0814 4.34238 29.0814C5.69477 29.0814 6.84522 28.204 7.25683 26.9889H9.10591V35.0156H2.25002C1.70636 35.0156 1.26564 35.4563 1.26564 36V39.375C1.26564 41.1403 2.70171 42.5763 4.46697 42.5763C7.13589 42.5763 9.42963 44.1111 10.453 46.5819C11.4763 49.0525 10.9398 51.7597 9.05247 53.647C7.80442 54.8952 7.80442 56.9263 9.05261 58.1746L13.8254 62.9474C14.4301 63.552 15.2342 63.885 16.0893 63.885C16.9445 63.885 17.7486 63.552 18.3531 62.9474C20.2428 61.0575 22.9511 60.5187 25.4205 61.5417C27.89 62.5645 29.424 64.8603 29.424 67.5329C29.424 69.2982 30.86 70.7342 32.6253 70.7342H39.375C41.1403 70.7342 42.5764 69.2982 42.5764 67.5329C42.5764 64.864 44.1111 62.5704 46.5818 61.5471C49.0525 60.5239 51.7597 61.0602 53.647 62.9473C54.2516 63.552 55.0557 63.885 55.911 63.885C56.7661 63.885 57.5702 63.552 58.1749 62.9474L62.9477 58.1746C64.1959 56.9263 64.1959 54.8952 62.9476 53.6469C61.0604 51.7598 60.5239 49.0527 61.5472 46.5819C62.5706 44.1111 64.8644 42.5763 67.5332 42.5763C69.2983 42.5763 70.7344 41.1403 70.7344 39.375V36C70.7344 35.739 70.6308 35.4885 70.4461 35.3039C70.2615 35.1194 70.011 35.0156 69.75 35.0156ZM67.6575 24.8965C68.2685 24.8965 68.7656 25.3936 68.7656 26.0047C68.7656 26.6157 68.2685 27.1128 67.6575 27.1128C67.0465 27.1128 66.5494 26.6157 66.5494 26.0047C66.5494 25.3936 67.0465 24.8965 67.6575 24.8965ZM56.6744 3.23438C57.2854 3.23438 57.7824 3.73148 57.7824 4.3425C57.7824 4.95352 57.2854 5.45062 56.6744 5.45062C56.0634 5.45062 55.5663 4.95352 55.5663 4.3425C55.5663 3.73148 56.0634 3.23438 56.6744 3.23438ZM15.3256 3.23438C15.9366 3.23438 16.4337 3.73148 16.4337 4.3425C16.4337 4.95352 15.9366 5.45062 15.3256 5.45062C14.7146 5.45062 14.2175 4.95352 14.2175 4.3425C14.2175 3.73148 14.7147 3.23438 15.3256 3.23438ZM4.34252 27.1126C3.7315 27.1126 3.23439 26.6155 3.23439 26.0045C3.23439 25.3935 3.7315 24.8964 4.34252 24.8964C4.95353 24.8964 5.45064 25.3935 5.45064 26.0045C5.45064 26.6155 4.95353 27.1126 4.34252 27.1126ZM68.7656 39.375C68.7656 40.0546 68.2127 40.6076 67.5331 40.6076C64.0527 40.6076 61.0621 42.6082 59.7281 45.8286C58.3943 49.0489 59.0943 52.5783 61.5552 55.0392C62.0359 55.5199 62.0359 56.3019 61.5552 56.7824L56.7824 61.5552C56.5497 61.788 56.2402 61.9162 55.9108 61.9162C55.5813 61.9162 55.2718 61.7881 55.0391 61.5552C52.578 59.0943 49.0483 58.3945 45.8283 59.7282C42.608 61.0622 40.6075 64.0529 40.6075 67.533C40.6075 68.2127 40.0545 68.7656 39.3749 68.7656H32.6252C31.9455 68.7656 31.3926 68.2127 31.3926 67.533C31.3926 64.0491 29.3929 61.0563 26.1738 59.7229C25.095 59.276 23.9818 59.0579 22.8849 59.0579C20.7087 59.0579 18.5988 59.9172 16.9608 61.5554C16.7282 61.7881 16.4187 61.9162 16.0893 61.9162C15.76 61.9162 15.4505 61.788 15.2176 61.5552L10.4448 56.7825C9.96414 56.3019 9.96414 55.5197 10.4447 55.0392C12.9057 52.5783 13.6058 49.0489 12.2719 45.8284C10.9381 42.6081 7.9473 40.6076 4.46697 40.6076C3.78733 40.6076 3.23439 40.0546 3.23439 39.375V36.9844H18.55C19.0627 46.1652 26.6935 53.4777 36 53.4777C45.3066 53.4777 52.9375 46.1652 53.4502 36.9847L68.7656 36.9844V39.375Z" fill="#60B8CC"/>
</svg>
