<svg width="72" height="72" viewBox="0 0 72 72" fill="none" xmlns="http://www.w3.org/2000/svg">
<mask id="mask0_1_81" style="mask-type:luminance" maskUnits="userSpaceOnUse" x="0" y="0" width="72" height="72">
<path d="M71 71V0.999992H1V71H71Z" fill="white" stroke="white" stroke-width="2"/>
</mask>
<g mask="url(#mask0_1_81)">
<path d="M12.5397 13.9028C13.7291 12.5416 15.0265 11.2782 16.4185 10.1261L12.5397 13.9028Z" fill="white"/>
<path d="M12.5397 13.9028C13.7291 12.5416 15.0265 11.2782 16.4185 10.1261" stroke="#60B8CC" stroke-width="2" stroke-miterlimit="10" stroke-linecap="round" stroke-linejoin="round"/>
<path d="M5.1167 28.4255C5.95637 24.7745 7.3899 21.3518 9.30929 18.2658L5.1167 28.4255Z" fill="white"/>
<path d="M5.1167 28.4255C5.95637 24.7745 7.3899 21.3518 9.30929 18.2658" stroke="#60B8CC" stroke-width="2" stroke-miterlimit="10" stroke-linecap="round" stroke-linejoin="round"/>
<path d="M16.2097 61.6999C8.90592 55.5538 4.26108 46.322 4.26108 36C4.26108 35.608 4.26783 35.2174 4.28105 34.8288" fill="white"/>
<path d="M16.2097 61.6999C8.90592 55.5538 4.26108 46.322 4.26108 36C4.26108 35.608 4.26783 35.2174 4.28105 34.8288" stroke="#60B8CC" stroke-width="2" stroke-miterlimit="10" stroke-linecap="round" stroke-linejoin="round"/>
<path d="M53.7599 65.3159C48.9738 67.9852 43.4651 69.5054 37.6031 69.5054C31.7611 69.5054 26.2701 67.9956 21.4954 65.343" fill="white"/>
<path d="M53.7599 65.3159C48.9738 67.9852 43.4651 69.5054 37.6031 69.5054C31.7611 69.5054 26.2701 67.9956 21.4954 65.343" stroke="#60B8CC" stroke-width="2" stroke-miterlimit="10" stroke-linecap="round" stroke-linejoin="round"/>
<path d="M65.8753 18.2308C69.0879 23.3815 70.9453 29.4728 70.9453 36C70.9453 46.307 66.3141 55.5269 59.0286 61.6731" fill="white"/>
<path d="M65.8753 18.2308C69.0879 23.3815 70.9453 29.4728 70.9453 36C70.9453 46.307 66.3141 55.5269 59.0286 61.6731" stroke="#60B8CC" stroke-width="2" stroke-miterlimit="10" stroke-linecap="round" stroke-linejoin="round"/>
<path d="M58.4923 9.88409C59.7262 10.882 60.888 11.9665 61.9684 13.1282L58.4923 9.88409Z" fill="white"/>
<path d="M58.4923 9.88409C59.7262 10.882 60.888 11.9665 61.9684 13.1282" stroke="#60B8CC" stroke-width="2" stroke-miterlimit="10" stroke-linecap="round" stroke-linejoin="round"/>
<path d="M21.7038 6.54223C26.4296 3.96106 31.8461 2.49476 37.6033 2.49476C43.2126 2.49476 48.4986 3.88681 53.1375 6.34578" fill="white"/>
<path d="M21.7038 6.54223C26.4296 3.96106 31.8461 2.49476 37.6033 2.49476C43.2126 2.49476 48.4986 3.88681 53.1375 6.34578" stroke="#60B8CC" stroke-width="2" stroke-miterlimit="10" stroke-linecap="round" stroke-linejoin="round"/>
<path d="M40.3954 14.2075C44.1508 11.8705 48.2877 10.0336 52.7334 8.80751L40.3954 14.2075Z" fill="white"/>
<path d="M40.3954 14.2075C44.1508 11.8705 48.2877 10.0336 52.7334 8.80751" stroke="#60B8CC" stroke-width="2" stroke-miterlimit="10" stroke-linecap="round" stroke-linejoin="round"/>
<path d="M26.7332 27.1269C29.1355 23.7178 31.9854 20.623 35.2187 17.9401L26.7332 27.1269Z" fill="white"/>
<path d="M26.7332 27.1269C29.1355 23.7178 31.9854 20.623 35.2187 17.9401" stroke="#60B8CC" stroke-width="2" stroke-miterlimit="10" stroke-linecap="round" stroke-linejoin="round"/>
<path d="M18.395 60.3025C17.1948 50.4898 19.0924 40.9117 23.3788 32.6462L18.395 60.3025Z" fill="white"/>
<path d="M18.395 60.3025C17.1948 50.4898 19.0924 40.9117 23.3788 32.6462" stroke="#60B8CC" stroke-width="2" stroke-miterlimit="10" stroke-linecap="round" stroke-linejoin="round"/>
<path d="M34.811 14.2075C30.9286 11.7914 26.6386 9.91001 22.021 8.68517L34.811 14.2075Z" fill="white"/>
<path d="M34.811 14.2075C30.9286 11.7914 26.6386 9.91001 22.021 8.68517" stroke="#60B8CC" stroke-width="2" stroke-miterlimit="10" stroke-linecap="round" stroke-linejoin="round"/>
<path d="M53.0552 35.1958C50.0892 28.5375 45.6205 22.6142 39.9879 17.9404L53.0552 35.1958Z" fill="white"/>
<path d="M53.0552 35.1958C50.0892 28.5375 45.6205 22.6142 39.9879 17.9404" stroke="#60B8CC" stroke-width="2" stroke-miterlimit="10" stroke-linecap="round" stroke-linejoin="round"/>
<path d="M56.6563 47.5745C56.3398 45.4334 55.876 43.3146 55.2705 41.2369L56.6563 47.5745Z" fill="white"/>
<path d="M56.6563 47.5745C56.3398 45.4334 55.876 43.3146 55.2705 41.2369" stroke="#60B8CC" stroke-width="2" stroke-miterlimit="10" stroke-linecap="round" stroke-linejoin="round"/>
<path d="M56.7916 60.4622C57.0704 58.2407 57.1945 56.0003 57.1597 53.7615L56.7916 60.4622Z" fill="white"/>
<path d="M56.7916 60.4622C57.0704 58.2407 57.1945 56.0003 57.1597 53.7615" stroke="#60B8CC" stroke-width="2" stroke-miterlimit="10" stroke-linecap="round" stroke-linejoin="round"/>
<path d="M21.9187 29.2152C17.1155 29.1907 12.2399 29.7061 7.36725 30.8057L21.9187 29.2152Z" fill="white"/>
<path d="M21.9187 29.2152C17.1155 29.1907 12.2399 29.7061 7.36725 30.8057" stroke="#60B8CC" stroke-width="2" stroke-miterlimit="10" stroke-linecap="round" stroke-linejoin="round"/>
<path d="M51.489 36.5989C44.3382 32.8501 36.4818 30.4302 28.3088 29.5679L51.489 36.5989Z" fill="white"/>
<path d="M51.489 36.5989C44.3382 32.8501 36.4818 30.4302 28.3088 29.5679" stroke="#60B8CC" stroke-width="2" stroke-miterlimit="10" stroke-linecap="round" stroke-linejoin="round"/>
<path d="M68.2539 49.2082C64.8591 45.6634 61.0856 42.529 57.0184 39.8551L68.2539 49.2082Z" fill="white"/>
<path d="M68.2539 49.2082C64.8591 45.6634 61.0856 42.529 57.0184 39.8551" stroke="#60B8CC" stroke-width="2" stroke-miterlimit="10" stroke-linecap="round" stroke-linejoin="round"/>
<path d="M55.888 35.3806C59.0332 30.3177 61.513 24.7696 63.1925 18.8476L55.888 35.3806Z" fill="white"/>
<path d="M55.888 35.3806C59.0332 30.3177 61.513 24.7696 63.1925 18.8476" stroke="#60B8CC" stroke-width="2" stroke-miterlimit="10" stroke-linecap="round" stroke-linejoin="round"/>
<path d="M21.9188 62.5227C33.9729 58.3655 44.5213 50.7113 52.242 40.6506L21.9188 62.5227Z" fill="white"/>
<path d="M21.9188 62.5227C33.9729 58.3655 44.5213 50.7113 52.242 40.6506" stroke="#60B8CC" stroke-width="2" stroke-miterlimit="10" stroke-linecap="round" stroke-linejoin="round"/>
<path d="M37.6032 19.0107C35.8351 19.0107 34.3968 17.5654 34.3968 15.7886C34.3968 14.0119 35.8351 12.5666 37.6032 12.5666C39.3713 12.5666 40.8096 14.0119 40.8096 15.7886C40.8096 17.5654 39.3713 19.0107 37.6032 19.0107Z" fill="white" stroke="#60B8CC" stroke-width="2" stroke-miterlimit="10" stroke-linecap="round" stroke-linejoin="round"/>
<path d="M25.1251 33.168C23.357 33.168 21.9187 31.7225 21.9187 29.9458C21.9187 28.1692 23.357 26.7237 25.1251 26.7237C26.8932 26.7237 28.3315 28.1692 28.3315 29.9458C28.3315 31.7225 26.8932 33.168 25.1251 33.168Z" fill="white" stroke="#60B8CC" stroke-width="2" stroke-miterlimit="10" stroke-linecap="round" stroke-linejoin="round"/>
<path d="M54.2865 41.3926C52.5185 41.3926 51.0801 39.9471 51.0801 38.1704C51.0801 36.3938 52.5185 34.9483 54.2865 34.9483C56.0546 34.9483 57.4929 36.3938 57.4929 38.1704C57.4929 39.9471 56.0546 41.3926 54.2865 41.3926Z" fill="white" stroke="#60B8CC" stroke-width="2" stroke-miterlimit="10" stroke-linecap="round" stroke-linejoin="round"/>
<path d="M18.8757 66.7102C17.1077 66.7102 15.6693 65.2649 15.6693 63.4881C15.6693 61.7114 17.1077 60.2661 18.8757 60.2661C20.6438 60.2661 22.0823 61.7114 22.0823 63.4881C22.0823 65.2649 20.6438 66.7102 18.8757 66.7102Z" fill="white" stroke="#60B8CC" stroke-width="2" stroke-miterlimit="10" stroke-linecap="round" stroke-linejoin="round"/>
<path d="M56.5159 66.8935C54.7479 66.8935 53.3095 65.4481 53.3095 63.6714C53.3095 61.8948 54.7479 60.4493 56.5159 60.4493C58.284 60.4493 59.7225 61.8948 59.7225 63.6714C59.7225 65.4481 58.284 66.8935 56.5159 66.8935Z" fill="white" stroke="#60B8CC" stroke-width="2" stroke-miterlimit="10" stroke-linecap="round" stroke-linejoin="round"/>
<path d="M63.9918 18.8476C62.2237 18.8476 60.7853 17.4022 60.7853 15.6255C60.7853 13.8489 62.2237 12.4034 63.9918 12.4034C65.7599 12.4034 67.1982 13.8489 67.1982 15.6255C67.1982 17.4022 65.7599 18.8476 63.9918 18.8476Z" fill="white" stroke="#60B8CC" stroke-width="2" stroke-miterlimit="10" stroke-linecap="round" stroke-linejoin="round"/>
<path d="M55.8517 11.281C54.0836 11.281 52.6453 9.83565 52.6453 8.05886C52.6453 6.2822 54.0836 4.83686 55.8517 4.83686C57.6198 4.83686 59.0582 6.2822 59.0582 8.05886C59.0582 9.83565 57.6198 11.281 55.8517 11.281Z" fill="white" stroke="#60B8CC" stroke-width="2" stroke-miterlimit="10" stroke-linecap="round" stroke-linejoin="round"/>
<path d="M18.8757 11.281C17.1077 11.281 15.6693 9.83565 15.6693 8.05886C15.6693 6.2822 17.1077 4.83686 18.8757 4.83686C20.6438 4.83686 22.0823 6.2822 22.0823 8.05886C22.0823 9.83565 20.6438 11.281 18.8757 11.281Z" fill="white" stroke="#60B8CC" stroke-width="2" stroke-miterlimit="10" stroke-linecap="round" stroke-linejoin="round"/>
<path d="M4.26112 34.8281C2.49305 34.8281 1.05473 33.3828 1.05473 31.606C1.05473 29.8293 2.49305 28.384 4.26112 28.384C6.0292 28.384 7.46751 29.8293 7.46751 31.606C7.46751 33.3828 6.0292 34.8281 4.26112 34.8281Z" fill="white" stroke="#60B8CC" stroke-width="2" stroke-miterlimit="10" stroke-linecap="round" stroke-linejoin="round"/>
</g>
</svg>
