<svg width="30" height="30" viewBox="0 0 30 30" fill="none" xmlns="http://www.w3.org/2000/svg">
<mask id="mask0_1_658" style="mask-type:alpha" maskUnits="userSpaceOnUse" x="0" y="0" width="30" height="30">
<rect width="30" height="30" fill="#D9D9D9"/>
</mask>
<g mask="url(#mask0_1_658)">
<path d="M15 26.6562C14.7083 26.6562 14.4167 26.6042 14.125 26.5C13.8333 26.3958 13.5729 26.2396 13.3438 26.0312C11.9896 24.7812 10.7917 23.5625 9.75 22.375C8.70833 21.1875 7.83854 20.0365 7.14062 18.9219C6.44271 17.8073 5.91146 16.7344 5.54688 15.7031C5.18229 14.6719 5 13.6875 5 12.75C5 9.625 6.00521 7.13542 8.01563 5.28125C10.026 3.42708 12.3542 2.5 15 2.5C17.6458 2.5 19.974 3.42708 21.9844 5.28125C23.9948 7.13542 25 9.625 25 12.75C25 13.6875 24.8177 14.6719 24.4531 15.7031C24.0885 16.7344 23.5573 17.8073 22.8594 18.9219C22.1615 20.0365 21.2917 21.1875 20.25 22.375C19.2083 23.5625 18.0104 24.7812 16.6562 26.0312C16.4271 26.2396 16.1667 26.3958 15.875 26.5C15.5833 26.6042 15.2917 26.6562 15 26.6562ZM15 15C15.6875 15 16.276 14.7552 16.7656 14.2656C17.2552 13.776 17.5 13.1875 17.5 12.5C17.5 11.8125 17.2552 11.224 16.7656 10.7344C16.276 10.2448 15.6875 10 15 10C14.3125 10 13.724 10.2448 13.2344 10.7344C12.7448 11.224 12.5 11.8125 12.5 12.5C12.5 13.1875 12.7448 13.776 13.2344 14.2656C13.724 14.7552 14.3125 15 15 15Z" fill="#E41F18"/>
</g>
</svg>
