<svg width="24" height="24" viewBox="0 0 24 24" fill="none" xmlns="http://www.w3.org/2000/svg">
<path d="M20.762 11.2015C20.5504 11.2015 20.3474 11.1174 20.1978 10.9678C20.0482 10.8182 19.9641 10.6152 19.9641 10.4036C19.9624 8.71135 19.2894 7.08886 18.0928 5.89224C16.8962 4.69561 15.2737 4.0226 13.5814 4.02091C13.3698 4.02091 13.1669 3.93685 13.0172 3.78723C12.8676 3.63761 12.7836 3.43467 12.7836 3.22307C12.7836 3.01147 12.8676 2.80854 13.0172 2.65891C13.1669 2.50929 13.3698 2.42523 13.5814 2.42523C15.6967 2.42756 17.7247 3.26888 19.2204 4.76462C20.7162 6.26036 21.5575 8.28834 21.5598 10.4036C21.5598 10.6152 21.4758 10.8182 21.3261 10.9678C21.1765 11.1174 20.9736 11.2015 20.762 11.2015ZM18.3684 10.4036C18.3684 9.13403 17.8641 7.91643 16.9664 7.01869C16.0686 6.12094 14.851 5.61659 13.5814 5.61659C13.3698 5.61659 13.1669 5.70065 13.0172 5.85028C12.8676 5.9999 12.7836 6.20283 12.7836 6.41443C12.7836 6.62603 12.8676 6.82897 13.0172 6.97859C13.1669 7.12822 13.3698 7.21227 13.5814 7.21227C14.4278 7.21227 15.2395 7.54851 15.838 8.147C16.4365 8.7455 16.7728 9.55723 16.7728 10.4036C16.7728 10.6152 16.8568 10.8182 17.0064 10.9678C17.1561 11.1174 17.359 11.2015 17.5706 11.2015C17.7822 11.2015 17.9851 11.1174 18.1348 10.9678C18.2844 10.8182 18.3684 10.6152 18.3684 10.4036ZM20.1101 20.1086L20.8362 19.2716C21.2983 18.808 21.5578 18.1801 21.5578 17.5256C21.5578 16.871 21.2983 16.2431 20.8362 15.7795C20.8114 15.7548 18.8918 14.2779 18.8918 14.2779C18.4311 13.8394 17.8192 13.5952 17.1831 13.5961C16.547 13.597 15.9358 13.8429 15.4763 14.2827L13.9556 15.5641C12.7143 15.0503 11.5867 14.2964 10.6376 13.3457C9.68849 12.3949 8.93655 11.266 8.42496 10.0239L9.70151 8.50797C10.1417 8.04855 10.3879 7.43717 10.3889 6.80091C10.39 6.16465 10.1458 5.55247 9.70709 5.09161C9.70709 5.09161 8.22869 3.1744 8.20396 3.14967C7.74875 2.69151 7.13157 2.43083 6.48575 2.42397C5.83994 2.4171 5.21735 2.66459 4.7525 3.11297L3.83499 3.91081C-1.58554 10.1994 10.0869 21.7816 16.5829 21.5734C17.2388 21.5772 17.8889 21.4495 18.4948 21.198C19.1006 20.9464 19.6498 20.5759 20.1101 20.1086Z" fill="#60B8CC"/>
</svg>
