<svg width="98" height="73" viewBox="0 0 98 73" fill="none" xmlns="http://www.w3.org/2000/svg">
<path d="M74.2435 0C87.1303 0 97.5771 10.4468 97.5771 23.3336C97.5771 32.852 92.6221 42.0617 85.2267 43.8388C82.3741 44.5243 80.1022 48.1851 80.5904 52.3642C81.2437 57.9579 86.3021 63.6091 96.3177 68.0626C98.5478 69.0542 97.614 72.4089 95.1924 72.1057C69.0902 68.8378 50.997 51.8209 50.9102 27.7451C50.9098 11.1876 60.6921 0 74.2435 0Z" fill="#60B8CC" fill-opacity="0.2"/>
<path d="M23.3333 0C36.2201 0 46.667 10.4468 46.667 23.3336C46.667 32.852 41.712 42.0617 34.3165 43.8388C31.4639 44.5243 29.1921 48.1851 29.6802 52.3642C30.3336 57.9579 35.392 63.6091 45.4076 68.0626C47.6376 69.0542 46.7039 72.4089 44.2822 72.1057C18.1801 68.8378 0.0868011 51.8209 7.49317e-09 27.7451C-0.000312621 11.1876 9.78196 0 23.3333 0Z" fill="#60B8CC" fill-opacity="0.2"/>
</svg>
