<svg width="72" height="72" viewBox="0 0 72 72" fill="none" xmlns="http://www.w3.org/2000/svg">
<path fill-rule="evenodd" clip-rule="evenodd" d="M45.1012 26.9001C43.3013 25.1002 41.0081 23.8745 38.5116 23.3779C36.015 22.8814 33.4273 23.1363 31.0757 24.1104C28.724 25.0845 26.714 26.7341 25.2998 28.8505C23.8856 30.967 23.1308 33.4552 23.1308 36.0007C23.1308 38.5461 23.8856 41.0344 25.2998 43.1508C26.714 45.2673 28.724 46.9169 31.0757 47.891C33.4273 48.8651 36.015 49.12 38.5116 48.6234C41.0081 48.1268 43.3013 46.9011 45.1012 45.1012C47.5145 42.6874 48.8703 39.4139 48.8703 36.0007C48.8703 32.5874 47.5145 29.3139 45.1012 26.9001ZM36 20.3498C39.0956 20.3498 42.1217 21.2678 44.6957 22.9877C47.2696 24.7076 49.2757 27.1521 50.4603 30.0121C51.6449 32.8721 51.9547 36.0192 51.3507 39.0554C50.7467 42.0915 49.2559 44.8803 47.0668 47.0692C44.8778 49.2581 42.0888 50.7486 39.0526 51.3524C36.0164 51.9561 32.8693 51.646 30.0094 50.4611C27.1495 49.2763 24.7051 47.27 22.9855 44.6959C21.2658 42.1218 20.3481 39.0956 20.3484 36C20.3488 31.8492 21.9979 27.8685 24.9331 24.9336C27.8683 21.9986 31.8492 20.3498 36 20.3498ZM21.9065 7.76809C26.5632 6.47526 31.0668 4.68364 35.339 2.42434C35.5396 2.31569 35.7638 2.25809 35.9919 2.25662C36.22 2.25515 36.4449 2.30985 36.6469 2.41591C40.9229 4.68037 45.4313 6.47581 50.0934 7.77091C54.8029 9.0717 59.6351 9.87809 64.5117 10.177C64.6946 10.1761 64.8759 10.2113 65.0451 10.2808C65.2143 10.3502 65.3681 10.4525 65.4977 10.5816C65.6272 10.7108 65.7299 10.8643 65.7999 11.0333C65.8698 11.2023 65.9057 11.3835 65.9053 11.5664V28.7943V28.8042C65.8026 39.3876 63.322 47.9531 58.4156 54.7143C53.5092 61.4756 46.1995 66.3961 36.4458 69.674C36.1602 69.7704 35.851 69.7704 35.5654 69.674C25.8117 66.3961 18.5062 61.4798 13.5956 54.7143C8.70326 47.9812 6.22404 39.4579 6.10169 28.9364C6.09891 28.8895 6.09891 28.8426 6.10169 28.7957V11.5664C6.10178 11.2127 6.23689 10.8724 6.47943 10.6149C6.72196 10.3575 7.05363 10.2024 7.40669 10.1812C12.311 9.8856 17.1708 9.07681 21.9065 7.76809ZM36 5.20309C44.4867 9.58075 53.6231 12.1036 63.1251 12.8559V28.7943C63.0253 38.7675 60.7176 46.7943 56.1558 53.0845C51.667 59.272 44.962 63.8086 35.9944 66.8953C27.0267 63.8086 20.3217 59.2692 15.8329 53.0845C11.2922 46.8197 8.98591 38.8237 8.8706 28.8984C8.8706 28.8647 8.8706 28.8295 8.8706 28.7943V12.8587C18.3769 12.1064 27.5133 9.58356 36 5.20309ZM40.9851 30.6562C41.2358 30.3869 41.5831 30.2283 41.9507 30.2151C42.3184 30.2019 42.6762 30.3353 42.9454 30.5859C43.2147 30.8365 43.3734 31.1839 43.3866 31.5515C43.3998 31.9191 43.2664 32.2769 43.0158 32.5462L34.8215 41.3592C34.6854 41.5068 34.5188 41.6231 34.3332 41.6999C34.1477 41.7767 33.9477 41.8123 33.747 41.8041C33.5464 41.796 33.3499 41.7443 33.1712 41.6526C32.9925 41.561 32.8359 41.4316 32.7122 41.2734L28.9687 37.125C28.8467 36.9902 28.7525 36.8326 28.6914 36.6614C28.6303 36.4902 28.6035 36.3086 28.6126 36.127C28.6217 35.9455 28.6664 35.7674 28.7443 35.6032C28.8222 35.4389 28.9317 35.2916 29.0665 35.1696C29.3387 34.9232 29.6977 34.7951 30.0644 34.8135C30.246 34.8225 30.424 34.8673 30.5883 34.9452C30.7525 35.023 30.8999 35.1325 31.0219 35.2673L33.8133 38.3512L40.9851 30.6562Z" fill="#60B8CC"/>
</svg>
