<svg width="72" height="72" viewBox="0 0 72 72" fill="none" xmlns="http://www.w3.org/2000/svg">
<g clip-path="url(#clip0_1_155)">
<path d="M59.1131 36.7119L60.4982 32.7801C60.6047 32.7886 60.7119 32.7941 60.82 32.7941C61.5905 32.794 62.3436 32.5654 62.9842 32.1373C63.6247 31.7092 64.124 31.1008 64.4189 30.389C64.7138 29.6773 64.791 28.894 64.6408 28.1384C64.4906 27.3827 64.1198 26.6885 63.5752 26.1436C63.0304 25.5986 62.3362 25.2275 61.5805 25.0771C60.8247 24.9267 60.0414 25.0039 59.3295 25.2988C58.6176 25.5937 58.0091 26.0931 57.5812 26.7339C57.1531 27.3747 56.9248 28.128 56.925 28.8985C56.925 29.0072 56.9304 29.115 56.9391 29.222L53.0092 30.6073C50.6035 28.4927 48.2188 26.7212 46.0772 25.4733C42.5484 23.4167 40.116 23.0175 38.8478 24.2858C31.6574 31.4803 31.5238 43.0984 38.4451 50.4545L33.0262 70.0313H30.9267L27.6782 54.2351C27.673 54.2002 27.6658 54.1656 27.6569 54.1314L26.818 50.0533C26.8145 50.0346 26.811 50.0158 26.8065 49.9971L22.3803 28.4758C22.375 28.4397 22.3676 28.4038 22.3583 28.3685L19.5739 14.831C20.6626 14.3893 21.5648 13.5842 22.1272 12.5526C22.6895 11.521 22.8773 10.3265 22.6587 9.17212C22.44 8.01773 21.8284 6.97465 20.9278 6.22014C20.0272 5.46563 18.8931 5.04624 17.7182 5.03324C16.5434 5.02024 15.4003 5.41444 14.4832 6.14884C13.566 6.88324 12.9315 7.91253 12.6874 9.06181C12.4433 10.2111 12.6046 11.4094 13.144 12.4532C13.6834 13.497 14.5675 14.3218 15.6462 14.7875L12.8797 28.3682C12.8704 28.4036 12.8632 28.4394 12.8579 28.4755L11.5031 35.1256C11.4915 35.1681 11.4827 35.2114 11.4768 35.2551L10.7016 39.0636C10.6913 39.1019 10.6834 39.1409 10.6779 39.1802L8.4797 49.9699V49.9723L4.3937 70.0313H1.31921C1.05814 70.0313 0.807762 70.1351 0.623156 70.3197C0.438549 70.5043 0.334839 70.7547 0.334839 71.0157C0.334839 71.2768 0.438549 71.5272 0.623156 71.7118C0.807762 71.8964 1.05814 72.0001 1.31921 72.0001H56.214C56.4751 72.0001 56.7255 71.8964 56.9101 71.7118C57.0947 71.5272 57.1984 71.2768 57.1984 71.0157C57.1984 70.7547 57.0947 70.5043 56.9101 70.3197C56.7255 70.1351 56.4751 70.0313 56.214 70.0313H50.1188L46.0634 55.3767C49.391 56.5062 52.968 56.6829 56.3907 55.8868C59.8134 55.0907 62.9453 53.3536 65.4328 50.8715C66.7014 49.6029 66.3017 47.1705 64.2454 43.6418C62.9978 41.5008 61.227 39.1169 59.1131 36.7119ZM59.4575 27.5359C59.8191 27.1749 60.3092 26.9722 60.8201 26.9722C61.331 26.9722 61.8211 27.1749 62.1827 27.5359C62.3872 27.7403 62.5432 27.9881 62.6389 28.261C62.7346 28.5339 62.7676 28.8248 62.7355 29.1122C62.7035 29.3996 62.6071 29.6761 62.4536 29.9212C62.3001 30.1663 62.0934 30.3737 61.8489 30.528C61.6043 30.6823 61.3281 30.7796 61.0408 30.8126C60.7536 30.8456 60.4625 30.8135 60.1893 30.7187C59.9161 30.6239 59.6678 30.4688 59.4627 30.265C59.2576 30.0611 59.101 29.8137 59.0046 29.5411L59.0036 29.5377L59.002 29.5339C58.8818 29.1918 58.8607 28.8227 58.9412 28.4692C59.0217 28.1156 59.2005 27.792 59.457 27.5357L59.4575 27.5359ZM57.591 31.0796C57.8711 31.4927 58.2273 31.8487 58.6406 32.1284L57.6084 35.0586C57.137 34.5579 56.6534 34.059 56.1576 33.5618C55.6619 33.0646 55.1635 32.5816 54.6625 32.1127L57.591 31.0796ZM45.0854 27.1743C46.8745 28.2169 48.8503 29.652 50.869 31.3612L47.1407 32.6753C47.0188 32.7183 46.9065 32.7849 46.8103 32.8713C46.7141 32.9577 46.6358 33.0621 46.58 33.1788C46.5242 33.2954 46.4919 33.4219 46.4849 33.551C46.478 33.6801 46.4965 33.8093 46.5395 33.9313C46.5825 34.0532 46.6491 34.1655 46.7355 34.2617C46.8219 34.358 46.9263 34.4362 47.043 34.492C47.1596 34.5479 47.2861 34.5802 47.4152 34.5871C47.5443 34.5941 47.6735 34.5755 47.7955 34.5325L52.5627 32.8519C53.2982 33.5232 54.0319 34.2238 54.7637 34.9538C55.4956 35.6839 56.1972 36.4185 56.8688 37.1577L55.1897 41.9234C55.1467 42.0453 55.1282 42.1745 55.1352 42.3036C55.1422 42.4327 55.1745 42.5592 55.2303 42.6758C55.2862 42.7924 55.3645 42.8969 55.4607 42.9833C55.5569 43.0696 55.6692 43.1362 55.7911 43.1791C55.9131 43.2221 56.0423 43.2406 56.1714 43.2337C56.3005 43.2267 56.427 43.1944 56.5436 43.1385C56.6602 43.0826 56.7647 43.0044 56.851 42.9082C56.9374 42.8119 57.004 42.6996 57.0469 42.5777L58.3594 38.8521C60.0674 40.8699 61.5019 42.8449 62.5441 44.6332C64.4582 47.9178 64.2738 49.2436 64.0411 49.4784L64.0396 49.4798C63.8033 49.7122 62.477 49.8941 59.1969 47.9823C56.2629 46.2721 52.8248 43.5092 49.5162 40.2024C47.4594 38.1625 45.5554 35.9742 43.8195 33.6552C43.797 33.6203 43.7724 33.587 43.7456 33.5553C43.0234 32.5805 42.3528 31.5685 41.7364 30.5235C39.889 27.3535 39.9963 26.0084 40.2155 25.7073C40.2238 25.6989 40.2318 25.6902 40.2401 25.6817C40.246 25.676 40.251 25.6695 40.2566 25.6636C40.5281 25.4383 41.8655 25.2985 45.0854 27.1748V27.1743ZM40.2397 49.4789C38.7906 48.0304 38.6125 45.4691 39.5425 42.4636C41.5734 45.5238 44.1963 48.1464 47.2566 50.1771C46.1559 50.5362 45.008 50.7296 43.8504 50.7508C42.3488 50.7507 41.0986 50.3379 40.2397 49.4789ZM44.4053 45.3133C42.8603 43.7784 41.5253 42.0458 40.435 40.1605C41.1485 38.6381 42.0063 37.1877 42.9968 35.8292C44.5866 37.8537 46.2985 39.7792 48.1232 41.5949C49.9401 43.4198 51.8667 45.1322 53.8922 46.7225C52.5334 47.7129 51.0828 48.5707 49.5602 49.284C47.6741 48.1938 45.9407 46.8586 44.4053 45.3133ZM38.5363 28.368C38.9323 29.4632 39.4341 30.5173 40.0345 31.5153C40.5319 32.3686 41.1148 33.2616 41.7669 34.1782C40.8626 35.3754 40.0504 36.6396 39.3373 37.9597C38.8503 36.8289 38.4818 35.6508 38.2376 34.4441C37.7859 32.1651 37.8965 30.0927 38.5363 28.368ZM55.5439 47.9532C56.4598 48.6047 57.3521 49.1873 58.2046 49.6842C59.203 50.285 60.2578 50.7869 61.3539 51.1827C59.6287 51.8225 57.556 51.9329 55.2767 51.4812C54.0685 51.2368 52.8889 50.8678 51.7568 50.3803C53.0782 49.6674 54.3442 48.8561 55.5439 47.9532ZM36.0267 32.7365C36.0749 33.4385 36.1682 34.1367 36.3059 34.8267C36.6954 36.7229 37.3506 38.5545 38.2521 40.2675C37.5716 41.9505 37.1682 43.5653 37.0568 45.0448C35.175 41.2183 34.8071 36.8225 36.0267 32.7365ZM14.4864 30.3458L15.9853 31.4789L13.941 33.0239L14.4864 30.3458ZM24.3519 47.8373L19.2332 43.9044L22.9545 41.0439L24.3519 47.8373ZM21.3074 33.0333L19.2516 31.4797L20.7546 30.3442L21.3074 33.0333ZM21.9084 35.9562L22.5131 38.8994L17.6171 42.6628L12.7406 38.916L13.3466 35.9408L17.6178 32.7137L21.9084 35.9562ZM12.3034 41.0626L16.0019 43.9045L10.9307 47.803L12.3034 41.0626ZM9.29645 55.826L15.3094 58.6611L8.01873 62.0993L9.29645 55.826ZM9.70117 53.8396L10.3309 50.7476L17.6178 45.1465L24.9584 50.7871L25.5817 53.8173L17.6182 57.572L9.70117 53.8396ZM25.9898 55.8021L27.292 62.1337L19.9266 58.6611L25.9898 55.8021ZM14.5457 10.1213C14.5444 9.47498 14.7439 8.84422 15.1165 8.31616C15.4892 7.78811 16.0167 7.38884 16.6261 7.17354C17.2355 6.95824 17.8967 6.93752 18.5184 7.11427C19.1401 7.29101 19.6915 7.65648 20.0965 8.16018C20.5015 8.66387 20.7401 9.28092 20.7792 9.92605C20.8184 10.5712 20.6562 11.2126 20.315 11.7615C19.9739 12.3105 19.4707 12.7399 18.8749 12.9905C18.2792 13.2412 17.6203 13.3005 16.9893 13.1605C16.9871 13.1605 16.9848 13.1592 16.9824 13.1588H16.9801C16.29 13.0036 15.6732 12.6184 15.2309 12.0664C14.7885 11.5145 14.5469 10.8286 14.5457 10.1213ZM17.6403 15.2033L20.3148 28.2081L17.6185 30.2454L14.9222 28.2072L17.5712 15.2017C17.5943 15.2017 17.6171 15.2032 17.6403 15.2033ZM7.52809 64.5077L17.6182 59.7497L27.7879 64.545L28.9162 70.0313H6.40323L7.52809 64.5077ZM48.0755 70.0313H35.0695L40.0641 51.9859C41.1939 52.9375 42.4324 53.7522 43.7536 54.4128L48.0755 70.0313ZM45.0601 52.855C45.0198 52.8329 44.9781 52.8136 44.9352 52.7973C44.8508 52.7574 44.7676 52.7161 44.6839 52.6747C45.313 52.6259 45.9377 52.5319 46.5534 52.3935C47.545 52.1668 48.5159 51.8575 49.456 51.4688C51.1682 52.3693 52.9989 53.0237 54.894 53.4128C55.5947 53.5527 56.3037 53.6467 57.0167 53.6941C53.0619 54.8793 48.8106 54.5811 45.0601 52.8554V52.855ZM68.4945 36.5723C68.3099 36.757 68.0594 36.8609 67.7983 36.861C67.5371 36.8611 67.2866 36.7574 67.1018 36.5728C66.9171 36.3882 66.8132 36.1377 66.8131 35.8766C66.8131 35.6154 66.9167 35.3649 67.1013 35.1801C67.9297 34.3563 68.5874 33.3772 69.0368 32.2987C69.4861 31.2203 69.7183 30.0639 69.7199 28.8956C69.7216 27.7273 69.4927 26.5702 69.0464 25.4905C68.6002 24.4108 67.9452 23.4298 67.1192 22.6036C66.2931 21.7775 65.3122 21.1224 64.2326 20.676C63.1529 20.2296 61.9958 20.0006 60.8275 20.0021C59.6593 20.0036 58.5028 20.2356 57.4243 20.6848C56.3458 21.134 55.3666 21.7916 54.5427 22.6199C54.3581 22.8046 54.1076 22.9085 53.8465 22.9085C53.5853 22.9086 53.3348 22.8049 53.1501 22.6203C52.9653 22.4357 52.8615 22.1853 52.8614 21.9241C52.8614 21.6629 52.965 21.4125 53.1497 21.2277C55.1845 19.1929 57.9443 18.0497 60.822 18.0497C63.6997 18.0496 66.4595 19.1928 68.4944 21.2276C70.5292 23.2624 71.6724 26.0222 71.6724 28.8999C71.6725 31.7776 70.5293 34.5374 68.4945 36.5723ZM55.6099 25.081C55.5184 24.9897 55.4458 24.8812 55.3962 24.7618C55.3466 24.6424 55.3211 24.5144 55.321 24.3851C55.3209 24.2558 55.3462 24.1278 55.3956 24.0083C55.445 23.8889 55.5174 23.7803 55.6088 23.6888C56.2933 23.0042 57.1059 22.4612 58.0003 22.0907C58.8947 21.7201 59.8533 21.5294 60.8214 21.5294C61.7895 21.5293 62.7481 21.72 63.6425 22.0904C64.5369 22.4608 65.3496 23.0038 66.0342 23.6883C66.7188 24.3728 67.2618 25.1855 67.6323 26.0799C68.0029 26.9742 68.1936 27.9328 68.1936 28.9009C68.1937 29.869 68.003 30.8276 67.6326 31.7221C67.2622 32.6165 66.7192 33.4292 66.0347 34.1138C65.9433 34.2052 65.8348 34.2777 65.7153 34.3272C65.5959 34.3766 65.4679 34.4021 65.3386 34.4021C65.2093 34.4021 65.0813 34.3766 64.9619 34.3272C64.8424 34.2777 64.7339 34.2052 64.6425 34.1138C64.5511 34.0223 64.4786 33.9138 64.4291 33.7944C64.3796 33.6749 64.3542 33.5469 64.3542 33.4177C64.3542 33.2884 64.3796 33.1604 64.4291 33.0409C64.4786 32.9215 64.5511 32.813 64.6425 32.7216C65.6557 31.7085 66.225 30.3343 66.2251 28.9015C66.2252 27.4686 65.6561 26.0944 64.643 25.0812C63.6299 24.068 62.2558 23.4987 60.8229 23.4986C59.3901 23.4985 58.0159 24.0676 57.0026 25.0807C56.9112 25.1722 56.8027 25.2448 56.6832 25.2944C56.5637 25.3439 56.4357 25.3695 56.3063 25.3695C56.177 25.3695 56.0489 25.344 55.9294 25.2945C55.8099 25.245 55.7013 25.1725 55.6099 25.081ZM27.0844 1.644C26.9096 1.45007 26.8189 1.19462 26.8325 0.933864C26.846 0.673108 26.9625 0.4284 27.1565 0.253575C27.3504 0.0787497 27.6058 -0.011873 27.8666 0.00164277C28.1274 0.0151586 28.3721 0.131706 28.5469 0.325645C30.9655 3.01499 32.3037 6.50406 32.3037 10.121C32.3037 13.738 30.9655 17.2271 28.5469 19.9164C28.3722 20.1105 28.1276 20.2273 27.8669 20.2411C27.6061 20.2549 27.3506 20.1645 27.1565 19.9899C26.9623 19.8152 26.8455 19.5706 26.8318 19.3099C26.818 19.0491 26.9083 18.7936 27.083 18.5994C29.1759 16.2717 30.3338 13.252 30.3338 10.1217C30.3338 6.99142 29.1759 3.97176 27.083 1.644H27.0844ZM6.77321 19.9157C4.3551 17.2264 3.01727 13.7377 3.01727 10.1212C3.01727 6.50461 4.3551 3.01589 6.77321 0.32663C6.85967 0.230462 6.96422 0.152265 7.08089 0.0965017C7.19757 0.0407389 7.32408 0.00850287 7.45321 0.00163424C7.58235 -0.00523439 7.71157 0.0133988 7.8335 0.0564701C7.95543 0.0995413 8.06769 0.166207 8.16385 0.252661C8.26002 0.339115 8.33822 0.443664 8.39398 0.560339C8.44975 0.677013 8.48198 0.803529 8.48885 0.932662C8.49572 1.06179 8.47709 1.19102 8.43401 1.31295C8.39094 1.43488 8.32428 1.54713 8.23782 1.6433C6.14461 3.9712 4.98658 6.99118 4.98671 10.1218C4.98684 13.2524 6.14512 16.2723 8.23853 18.6C8.32492 18.6962 8.39151 18.8085 8.4345 18.9305C8.4775 19.0524 8.49605 19.1816 8.4891 19.3107C8.48215 19.4399 8.44984 19.5664 8.39401 19.683C8.33818 19.7996 8.25993 19.9041 8.16371 19.9905C8.0675 20.0769 7.95521 20.1435 7.83326 20.1865C7.71131 20.2295 7.58209 20.248 7.45297 20.2411C7.32385 20.2341 7.19736 20.2018 7.08073 20.146C6.9641 20.0902 6.8596 20.0119 6.77321 19.9157ZM6.98767 10.1213C6.9861 7.48421 7.9625 4.94022 9.72803 2.98135C9.90274 2.78728 10.1474 2.67056 10.4082 2.65687C10.6689 2.64319 10.9245 2.73365 11.1185 2.90836C11.3126 3.08308 11.4293 3.32773 11.443 3.5885C11.4567 3.84927 11.3662 4.10479 11.1915 4.29886C9.75315 5.89626 8.95715 7.96963 8.957 10.1192C8.95684 12.2687 9.75254 14.3422 11.1907 15.9398C11.3656 16.1337 11.4563 16.3892 11.4429 16.6501C11.4295 16.9109 11.313 17.1557 11.119 17.3307C10.9251 17.5056 10.6696 17.5963 10.4088 17.5829C10.1479 17.5694 9.9031 17.4529 9.72817 17.259C7.9614 15.3018 6.98472 12.758 6.98767 10.1213ZM24.1299 4.29844C23.9552 4.10432 23.8648 3.84876 23.8786 3.58799C23.8923 3.32722 24.0091 3.0826 24.2033 2.90794C24.3974 2.73328 24.6529 2.6429 24.9137 2.65666C25.1745 2.67043 25.4191 2.78722 25.5938 2.98135C27.3581 4.94051 28.3345 7.48364 28.3345 10.1202C28.3345 12.7567 27.3581 15.2998 25.5938 17.259C25.5071 17.355 25.4025 17.4331 25.2857 17.4886C25.1689 17.5442 25.0423 17.5762 24.9132 17.5829C24.784 17.5895 24.6548 17.5707 24.533 17.5274C24.4111 17.4841 24.2989 17.4173 24.2029 17.3307C24.1069 17.244 24.0289 17.1393 23.9733 17.0226C23.9177 16.9058 23.8857 16.7792 23.879 16.6501C23.8724 16.5209 23.8912 16.3917 23.9345 16.2698C23.9778 16.148 24.0446 16.0358 24.1313 15.9398C25.5695 14.3422 26.3652 12.2688 26.3651 10.1192C26.365 7.96964 25.569 5.89625 24.1306 4.29886L24.1299 4.29844Z" fill="#60B8CC"/>
</g>
<defs>
<clipPath id="clip0_1_155">
<rect width="72" height="72" fill="white"/>
</clipPath>
</defs>
</svg>
